<svg version="1.1" id="Layer_1" xmlns="http://www.w3.org/2000/svg" xmlns:xlink="http://www.w3.org/1999/xlink" x="0px" y="0px"
	 width="100%" viewBox="0 0 500 500" enable-background="new 0 0 500 500" xml:space="preserve">
<path fill="#FFFFFF" opacity="1.000000" stroke="none" 
	d="
M272.000000,501.000000 
	C181.333359,501.000000 91.166710,501.000000 1.000048,501.000000 
	C1.000032,334.333405 1.000032,167.666794 1.000016,1.000138 
	C167.666565,1.000092 334.333130,1.000092 500.999756,1.000046 
	C500.999847,167.666519 500.999847,334.333038 500.999939,500.999786 
	C424.833344,501.000000 348.666656,501.000000 272.000000,501.000000 
M130.872162,196.544937 
	C124.930145,191.821960 120.647980,191.977859 115.103828,197.451065 
	C100.048843,212.313446 85.065651,227.248581 70.065422,242.166351 
	C69.242271,242.984970 67.993355,243.830139 67.851524,244.796387 
	C67.370949,248.070251 66.641869,251.529617 67.243446,254.682297 
	C67.942924,258.348053 71.502563,258.092346 74.596085,258.086243 
	C99.250557,258.037537 123.905159,258.057739 148.559723,258.056824 
	C150.299927,258.056763 152.040146,258.056793 155.255264,258.056793 
	C147.918930,265.645050 141.210464,271.682678 135.616562,278.619171 
	C129.833588,285.790131 123.177422,288.819275 114.076073,287.546387 
	C109.665451,286.929535 105.097168,287.439819 99.507164,287.439819 
	C105.344193,293.327240 110.088936,298.215515 114.947670,302.987762 
	C121.052673,308.984039 125.992645,308.923889 132.178665,302.810089 
	C144.855057,290.281708 157.498703,277.720184 170.142593,265.158966 
	C172.977997,262.342102 175.871811,259.571320 178.533157,256.595490 
	C181.216721,253.594833 181.525711,250.101761 180.112732,246.324722 
	C178.633316,242.370132 175.401535,242.817795 172.219162,242.821442 
	C147.731262,242.849518 123.243309,242.851166 98.755386,242.841629 
	C97.023560,242.840942 95.291794,242.685989 92.640404,242.558609 
	C94.021225,240.812210 94.711945,239.774963 95.561378,238.890076 
	C102.597298,231.560745 109.750931,224.341782 116.669861,216.904221 
	C119.015068,214.383194 121.447006,213.245682 124.930954,213.362015 
	C132.183380,213.604126 139.449554,213.435196 147.606857,213.435196 
	C141.668350,207.424988 136.536118,202.230804 130.872162,196.544937 
M204.243774,282.164917 
	C204.805374,282.444061 205.365906,282.964294 205.928711,282.966766 
	C216.899750,283.014771 227.871063,283.002380 239.016388,283.002380 
	C239.016388,267.476746 239.016388,252.212433 239.016388,236.500916 
	C231.036377,237.801041 223.271042,239.066177 215.381271,240.351593 
	C215.381271,234.856033 215.381271,229.921417 215.381271,224.516724 
	C223.343536,224.516724 231.078644,224.516724 238.902557,224.516724 
	C238.902557,220.636993 238.902557,217.236496 238.902557,213.943848 
	C227.202194,213.943848 215.794266,213.943848 204.403717,213.943848 
	C204.403717,227.354233 204.403717,240.446442 204.403717,253.788422 
	C212.377319,252.060165 220.077881,250.391098 228.059769,248.661057 
	C228.059769,256.706818 228.059769,264.130493 228.059769,272.164368 
	C220.041794,272.164368 212.172729,272.164368 204.176010,272.164368 
	C204.176010,275.592712 204.176010,278.411713 204.243774,282.164917 
M288.508911,276.346405 
	C288.508911,278.476288 288.508911,280.606171 288.508911,282.682129 
	C292.388031,282.682129 295.781830,282.682129 299.698578,282.682129 
	C299.698578,266.813080 299.698578,251.263611 299.698578,235.877090 
	C304.301361,235.877090 308.356384,235.877090 312.302887,235.877090 
	C312.302887,239.912170 312.302887,243.507935 312.302887,247.349243 
	C308.647827,247.517410 305.276245,247.672546 301.460388,247.848114 
	C305.277557,259.918762 308.907501,271.397339 312.472321,282.670074 
	C316.290894,282.670074 319.652466,282.670074 323.343933,282.670074 
	C320.689423,274.578949 318.167755,266.892670 315.524292,258.835205 
	C318.393219,258.591705 320.784698,258.388733 323.127441,258.189911 
	C323.127441,246.820938 323.127441,235.787308 323.127441,224.797699 
	C311.475983,224.797699 300.220825,224.797699 288.508942,224.797699 
	C288.508942,241.833359 288.508942,258.606262 288.508911,276.346405 
M377.710358,228.285187 
	C377.337982,227.104919 376.965607,225.924652 376.654205,224.937683 
	C373.020630,224.937683 369.736115,224.937683 366.524353,224.937683 
	C366.524353,244.420609 366.524353,263.634033 366.524353,282.669281 
	C378.287964,282.669281 389.696991,282.669281 400.936798,282.669281 
	C400.936798,263.227051 400.936798,244.125763 400.936798,224.645081 
	C393.288605,225.921921 385.942932,227.148254 377.710358,228.285187 
M438.291595,235.612793 
	C439.849640,235.612793 441.407684,235.612793 442.914703,235.612793 
	C442.914703,231.532837 442.914703,228.277847 442.914703,224.987885 
	C431.219788,224.987885 419.803131,224.987885 408.390045,224.987885 
	C408.390045,244.385986 408.390045,263.474274 408.390045,282.786499 
	C420.008850,282.786499 431.406769,282.786499 442.970306,282.786499 
	C442.970306,279.200836 442.970306,275.807556 442.970306,271.982605 
	C435.019012,271.982605 427.274902,271.982605 419.485291,271.982605 
	C419.485291,267.002197 419.485291,262.463898 419.485291,257.531372 
	C424.593567,257.531372 429.361084,257.531372 434.397247,257.531372 
	C434.950195,253.793884 435.450165,250.414444 436.028625,246.504456 
	C430.168823,246.504456 424.773743,246.504456 419.510223,246.504456 
	C419.510223,242.630981 419.510223,239.241730 419.510223,235.612762 
	C425.695648,235.612762 431.512787,235.612762 438.291595,235.612793 
M85.499992,279.868286 
	C96.993645,279.868927 108.487465,279.900543 119.980736,279.834656 
	C121.587578,279.825439 123.716469,279.900269 124.707916,278.975677 
	C129.493286,274.512848 133.972107,269.721344 139.426331,264.163239 
	C117.873901,264.163239 97.766342,264.159821 77.658798,264.178497 
	C77.010513,264.179077 76.137169,264.176758 75.748482,264.560425 
	C70.893616,269.352814 66.109047,274.216400 60.507328,279.867920 
	C69.515671,279.867920 77.007851,279.867920 85.499992,279.868286 
M136.509811,220.845230 
	C122.961563,217.695496 116.309792,226.917877 109.148109,235.746674 
	C109.808846,236.031738 110.104454,236.270493 110.400589,236.271133 
	C130.011383,236.314346 149.622223,236.353027 169.232971,236.324905 
	C170.322784,236.323349 171.746231,236.092148 172.446823,235.396362 
	C176.961411,230.912857 181.317871,226.270126 186.527161,220.845627 
	C169.330200,220.845627 153.418411,220.845627 136.509811,220.845230 
M269.203278,260.500031 
	C269.203278,252.258575 269.203278,244.017120 269.203278,235.414322 
	C273.543518,235.414322 277.160736,235.414322 280.885315,235.414322 
	C280.885315,231.633789 280.885315,228.243332 280.885315,224.871033 
	C269.183899,224.871033 257.788849,224.871033 246.420197,224.871033 
	C246.420197,228.484589 246.420197,231.750183 246.420197,235.514099 
	C250.396057,235.514099 254.140778,235.514099 258.329163,235.514099 
	C258.329163,251.575958 258.329163,267.136963 258.329163,282.715240 
	C262.213867,282.715240 265.617126,282.715240 269.203278,282.715240 
	C269.203278,275.447815 269.203278,268.473907 269.203278,260.500031 
M343.184021,273.783020 
	C347.936249,264.753296 352.688446,255.723602 357.824585,245.964417 
	C354.192017,245.964417 351.622772,245.964417 348.386017,245.964417 
	C352.570404,238.414017 356.435272,231.440155 360.495087,224.114563 
	C353.998932,224.114563 348.330353,223.913651 342.694977,224.257355 
	C341.304749,224.342133 339.217712,225.956589 338.819977,227.279480 
	C336.004700,236.642288 333.546021,246.112350 330.825623,256.091278 
	C334.390259,256.091278 337.596252,256.091278 340.898499,256.091278 
	C339.588104,265.656433 338.344879,274.731079 337.101654,283.805725 
	C337.316925,283.863251 337.532196,283.920776 337.747467,283.978302 
	C339.471436,280.810181 341.195374,277.642029 343.184021,273.783020 
z"/>
<path fill="#090909" opacity="1.000000" stroke="none" 
	d="
M131.138031,196.790771 
	C136.536118,202.230804 141.668350,207.424988 147.606857,213.435196 
	C139.449554,213.435196 132.183380,213.604126 124.930954,213.362015 
	C121.447006,213.245682 119.015068,214.383194 116.669861,216.904221 
	C109.750931,224.341782 102.597298,231.560745 95.561378,238.890076 
	C94.711945,239.774963 94.021225,240.812210 92.640404,242.558609 
	C95.291794,242.685989 97.023560,242.840942 98.755386,242.841629 
	C123.243309,242.851166 147.731262,242.849518 172.219162,242.821442 
	C175.401535,242.817795 178.633316,242.370132 180.112732,246.324722 
	C181.525711,250.101761 181.216721,253.594833 178.533157,256.595490 
	C175.871811,259.571320 172.977997,262.342102 170.142593,265.158966 
	C157.498703,277.720184 144.855057,290.281708 132.178665,302.810089 
	C125.992645,308.923889 121.052673,308.984039 114.947670,302.987762 
	C110.088936,298.215515 105.344193,293.327240 99.507164,287.439819 
	C105.097168,287.439819 109.665451,286.929535 114.076073,287.546387 
	C123.177422,288.819275 129.833588,285.790131 135.616562,278.619171 
	C141.210464,271.682678 147.918930,265.645050 155.255264,258.056793 
	C152.040146,258.056793 150.299927,258.056763 148.559723,258.056824 
	C123.905159,258.057739 99.250557,258.037537 74.596085,258.086243 
	C71.502563,258.092346 67.942924,258.348053 67.243446,254.682297 
	C66.641869,251.529617 67.370949,248.070251 67.851524,244.796387 
	C67.993355,243.830139 69.242271,242.984970 70.065422,242.166351 
	C85.065651,227.248581 100.048843,212.313446 115.103828,197.451065 
	C120.647980,191.977859 124.930145,191.821960 131.138031,196.790771 
z"/>
<path fill="#070707" opacity="1.000000" stroke="none" 
	d="
M204.209900,281.697815 
	C204.176010,278.411713 204.176010,275.592712 204.176010,272.164368 
	C212.172729,272.164368 220.041794,272.164368 228.059769,272.164368 
	C228.059769,264.130493 228.059769,256.706818 228.059769,248.661057 
	C220.077881,250.391098 212.377319,252.060165 204.403717,253.788422 
	C204.403717,240.446442 204.403717,227.354233 204.403717,213.943848 
	C215.794266,213.943848 227.202194,213.943848 238.902557,213.943848 
	C238.902557,217.236496 238.902557,220.636993 238.902557,224.516724 
	C231.078644,224.516724 223.343536,224.516724 215.381271,224.516724 
	C215.381271,229.921417 215.381271,234.856033 215.381271,240.351593 
	C223.271042,239.066177 231.036377,237.801041 239.016388,236.500916 
	C239.016388,252.212433 239.016388,267.476746 239.016388,283.002380 
	C227.871063,283.002380 216.899750,283.014771 205.928711,282.966766 
	C205.365906,282.964294 204.805374,282.444061 204.209900,281.697815 
z"/>
<path fill="#040404" opacity="1.000000" stroke="none" 
	d="
M288.508911,275.862793 
	C288.508942,258.606262 288.508942,241.833359 288.508942,224.797699 
	C300.220825,224.797699 311.475983,224.797699 323.127441,224.797699 
	C323.127441,235.787308 323.127441,246.820938 323.127441,258.189911 
	C320.784698,258.388733 318.393219,258.591705 315.524292,258.835205 
	C318.167755,266.892670 320.689423,274.578949 323.343933,282.670074 
	C319.652466,282.670074 316.290894,282.670074 312.472321,282.670074 
	C308.907501,271.397339 305.277557,259.918762 301.460388,247.848114 
	C305.276245,247.672546 308.647827,247.517410 312.302887,247.349243 
	C312.302887,243.507935 312.302887,239.912170 312.302887,235.877090 
	C308.356384,235.877090 304.301361,235.877090 299.698578,235.877090 
	C299.698578,251.263611 299.698578,266.813080 299.698578,282.682129 
	C295.781830,282.682129 292.388031,282.682129 288.508911,282.682129 
	C288.508911,280.606171 288.508911,278.476288 288.508911,275.862793 
z"/>
<path fill="#050505" opacity="1.000000" stroke="none" 
	d="
M378.153809,228.329895 
	C385.942932,227.148254 393.288605,225.921921 400.936798,224.645081 
	C400.936798,244.125763 400.936798,263.227051 400.936798,282.669281 
	C389.696991,282.669281 378.287964,282.669281 366.524353,282.669281 
	C366.524353,263.634033 366.524353,244.420609 366.524353,224.937683 
	C369.736115,224.937683 373.020630,224.937683 376.654205,224.937683 
	C376.965607,225.924652 377.337982,227.104919 378.153809,228.329895 
M377.126404,268.295898 
	C377.743958,269.538025 378.262054,271.780640 378.995850,271.853607 
	C382.690674,272.220978 386.441742,272.022247 389.890503,272.022247 
	C389.890503,259.886749 389.890503,248.508057 389.890503,236.876572 
	C386.586182,237.608505 383.704346,238.523560 380.759949,238.822556 
	C377.715393,239.131729 377.003784,240.525482 377.065765,243.371445 
	C377.239777,251.355759 377.126373,259.346344 377.126404,268.295898 
z"/>
<path fill="#070707" opacity="1.000000" stroke="none" 
	d="
M437.810760,235.612778 
	C431.512787,235.612762 425.695648,235.612762 419.510223,235.612762 
	C419.510223,239.241730 419.510223,242.630981 419.510223,246.504456 
	C424.773743,246.504456 430.168823,246.504456 436.028625,246.504456 
	C435.450165,250.414444 434.950195,253.793884 434.397247,257.531372 
	C429.361084,257.531372 424.593567,257.531372 419.485291,257.531372 
	C419.485291,262.463898 419.485291,267.002197 419.485291,271.982605 
	C427.274902,271.982605 435.019012,271.982605 442.970306,271.982605 
	C442.970306,275.807556 442.970306,279.200836 442.970306,282.786499 
	C431.406769,282.786499 420.008850,282.786499 408.390045,282.786499 
	C408.390045,263.474274 408.390045,244.385986 408.390045,224.987885 
	C419.803131,224.987885 431.219788,224.987885 442.914703,224.987885 
	C442.914703,228.277847 442.914703,231.532837 442.914703,235.612793 
	C441.407684,235.612793 439.849640,235.612793 437.810760,235.612778 
z"/>
<path fill="#0B0B0B" opacity="1.000000" stroke="none" 
	d="
M85.000008,279.868103 
	C77.007851,279.867920 69.515671,279.867920 60.507328,279.867920 
	C66.109047,274.216400 70.893616,269.352814 75.748482,264.560425 
	C76.137169,264.176758 77.010513,264.179077 77.658798,264.178497 
	C97.766342,264.159821 117.873901,264.163239 139.426331,264.163239 
	C133.972107,269.721344 129.493286,274.512848 124.707916,278.975677 
	C123.716469,279.900269 121.587578,279.825439 119.980736,279.834656 
	C108.487465,279.900543 96.993645,279.868927 85.000008,279.868103 
z"/>
<path fill="#050505" opacity="1.000000" stroke="none" 
	d="
M137.008224,220.845428 
	C153.418411,220.845627 169.330200,220.845627 186.527161,220.845627 
	C181.317871,226.270126 176.961411,230.912857 172.446823,235.396362 
	C171.746231,236.092148 170.322784,236.323349 169.232971,236.324905 
	C149.622223,236.353027 130.011383,236.314346 110.400589,236.271133 
	C110.104454,236.270493 109.808846,236.031738 109.148109,235.746674 
	C116.309792,226.917877 122.961563,217.695496 137.008224,220.845428 
z"/>
<path fill="#060606" opacity="1.000000" stroke="none" 
	d="
M269.203278,261.000000 
	C269.203278,268.473907 269.203278,275.447815 269.203278,282.715240 
	C265.617126,282.715240 262.213867,282.715240 258.329163,282.715240 
	C258.329163,267.136963 258.329163,251.575958 258.329163,235.514099 
	C254.140778,235.514099 250.396057,235.514099 246.420197,235.514099 
	C246.420197,231.750183 246.420197,228.484589 246.420197,224.871033 
	C257.788849,224.871033 269.183899,224.871033 280.885315,224.871033 
	C280.885315,228.243332 280.885315,231.633789 280.885315,235.414322 
	C277.160736,235.414322 273.543518,235.414322 269.203278,235.414322 
	C269.203278,244.017120 269.203278,252.258575 269.203278,261.000000 
z"/>
<path fill="#070707" opacity="1.000000" stroke="none" 
	d="
M343.051697,274.128479 
	C341.195374,277.642029 339.471436,280.810181 337.747467,283.978302 
	C337.532196,283.920776 337.316925,283.863251 337.101654,283.805725 
	C338.344879,274.731079 339.588104,265.656433 340.898499,256.091278 
	C337.596252,256.091278 334.390259,256.091278 330.825623,256.091278 
	C333.546021,246.112350 336.004700,236.642288 338.819977,227.279480 
	C339.217712,225.956589 341.304749,224.342133 342.694977,224.257355 
	C348.330353,223.913651 353.998932,224.114563 360.495087,224.114563 
	C356.435272,231.440155 352.570404,238.414017 348.386017,245.964417 
	C351.622772,245.964417 354.192017,245.964417 357.824585,245.964417 
	C352.688446,255.723602 347.936249,264.753296 343.051697,274.128479 
z"/>
<path fill="#FAFAFA" opacity="1.000000" stroke="none" 
	d="
M377.126404,267.815186 
	C377.126373,259.346344 377.239777,251.355759 377.065765,243.371445 
	C377.003784,240.525482 377.715393,239.131729 380.759949,238.822556 
	C383.704346,238.523560 386.586182,237.608505 389.890503,236.876572 
	C389.890503,248.508057 389.890503,259.886749 389.890503,272.022247 
	C386.441742,272.022247 382.690674,272.220978 378.995850,271.853607 
	C378.262054,271.780640 377.743958,269.538025 377.126404,267.815186 
z"/>
</svg>